<svg height='300px' width='300px'  fill="#000000" xmlns="http://www.w3.org/2000/svg" xmlns:xlink="http://www.w3.org/1999/xlink" version="1.1" x="0px" y="0px" viewBox="0 0 90 90" enable-background="new 0 0 90 90" xml:space="preserve"><path fill="#000000" d="M83.651,37.336l-14.397,3.641c1.334,6.128,1.844,12.308,1.545,18.408c3.352,0.299,6.667,0.891,9.933,1.72  C84.052,53.883,85.224,45.627,83.651,37.336z"></path><path fill="#000000" d="M47.85,84.02c1.46-0.113,2.929-0.301,4.396-0.581l-4.302-17.004c-4.236,1.245-8.274,2.927-12.065,5.012  C39.26,76.163,43.285,80.387,47.85,84.02z"></path><path fill="#000000" d="M70.397,64.184c-0.518,4.328-1.454,8.589-2.79,12.737c4.359-3.08,8.007-6.992,10.773-11.45  C75.751,64.861,73.087,64.424,70.397,64.184z"></path><path fill="#000000" d="M28.784,8.618c-2.366,5.553-3.922,11.388-4.622,17.357c4.397,0.047,8.824-0.39,13.215-1.324l-4.454-17.61  C31.5,7.492,30.121,8.022,28.784,8.618z"></path><path fill="#000000" d="M25.196,47.153l16.798-4.248L38.558,29.32c-4.913,1.059-9.865,1.542-14.783,1.463  C23.552,36.21,24.024,41.704,25.196,47.153z"></path><path fill="#000000" d="M56.865,22.401c-4.271,2.4-8.836,4.33-13.64,5.736l3.436,13.589l16.744-4.235  C61.844,32.135,59.646,27.073,56.865,22.401z"></path><path fill="#000000" d="M64.586,42.158l-16.744,4.234l3.59,14.196c4.832-1.033,9.702-1.511,14.539-1.444  C66.256,53.519,65.802,47.814,64.586,42.158z"></path><path fill="#000000" d="M61.005,80.683c2.284-5.358,3.818-10.98,4.549-16.73c-4.307-0.034-8.64,0.396-12.94,1.305l4.298,16.992  C58.318,81.8,59.683,81.273,61.005,80.683z"></path><path fill="#000000" d="M26.377,51.822c1.618,5.549,3.928,10.779,6.851,15.591c4.243-2.363,8.773-4.261,13.537-5.646l-3.59-14.194  L26.377,51.822z"></path><path fill="#000000" d="M31.727,73.949c-2.264,1.496-4.414,3.155-6.45,4.953c4.574,2.617,9.667,4.329,14.991,4.96  C37.108,80.839,34.248,77.523,31.727,73.949z"></path><path fill="#000000" d="M19.319,25.735c0.503-4.548,1.47-9.026,2.874-13.379c-4.553,3.203-8.339,7.309-11.154,12  C13.766,25.01,16.53,25.478,19.319,25.735z"></path><path fill="#000000" d="M82.473,32.668c-2.504-7.865-7.304-14.45-13.459-19.204c-2.535,2.37-5.237,4.546-8.124,6.463  c3.013,5.079,5.39,10.586,7.07,16.411L82.473,32.668z"></path><path fill="#000000" d="M6.084,51.988l14.445-3.653c-1.291-5.924-1.818-11.898-1.582-17.799c-3.433-0.313-6.827-0.938-10.168-1.81  C5.634,35.828,4.549,43.891,6.084,51.988z"></path><path fill="#000000" d="M58.383,15.841c2.318-1.547,4.516-3.265,6.594-5.127c-4.688-2.777-9.947-4.585-15.451-5.245  C52.818,8.623,55.787,12.091,58.383,15.841z"></path><path fill="#000000" d="M41.934,5.302c-1.442,0.108-2.891,0.294-4.341,0.565l4.452,17.602c4.287-1.269,8.366-2.988,12.196-5.114  C50.79,13.445,46.651,9.058,41.934,5.302z"></path><path fill="#000000" d="M21.135,76.179c2.489-2.292,5.137-4.398,7.958-6.26c-3.158-5.22-5.645-10.896-7.383-16.917L7.264,56.657  C9.823,64.696,14.78,71.403,21.135,76.179z"></path></svg>