<?xml version="1.0" standalone="no"?><svg xmlns="http://www.w3.org/2000/svg" viewBox="0 0 1440 320"><path fill="#ffd700" fill-opacity="1" d="M0,0L20,5.3C40,11,80,21,120,26.7C160,32,200,32,240,69.3C280,107,320,181,360,218.7C400,256,440,256,480,240C520,224,560,192,600,176C640,160,680,160,720,138.7C760,117,800,75,840,48C880,21,920,11,960,26.7C1000,43,1040,85,1080,133.3C1120,181,1160,235,1200,213.3C1240,192,1280,96,1320,64C1360,32,1400,64,1420,80L1440,96L1440,320L1420,320C1400,320,1360,320,1320,320C1280,320,1240,320,1200,320C1160,320,1120,320,1080,320C1040,320,1000,320,960,320C920,320,880,320,840,320C800,320,760,320,720,320C680,320,640,320,600,320C560,320,520,320,480,320C440,320,400,320,360,320C320,320,280,320,240,320C200,320,160,320,120,320C80,320,40,320,20,320L0,320Z"></path></svg>